<?xml version="1.0" encoding="utf-8"?>
<!-- Generator: Adobe Illustrator 19.2.0, SVG Export Plug-In . SVG Version: 6.00 Build 0)  -->
<svg version="1.1" id="Layer_1" xmlns="http://www.w3.org/2000/svg" xmlns:xlink="http://www.w3.org/1999/xlink" x="0px" y="0px"
	 width="512px" height="512px" viewBox="4728 258 512 512" enable-background="new 4728 258 512 512" xml:space="preserve">
<g>
	<g>
		<path fill="#1D1D1B" d="M5132.8,671.5l-98.5-98.5c-22.3,20.1-51.8,32.4-84.1,32.4c-69.3,0-125.6-56.3-125.6-125.6
			c0-69.2,56.3-125.6,125.6-125.6c69.3,0,125.6,56.3,125.6,125.6c0,31.6-11.7,60.4-31,82.5l98.6,98.6L5132.8,671.5z M4950.2,369.3
			c-61,0-110.6,49.6-110.6,110.6c0,61,49.6,110.6,110.6,110.6s110.6-49.6,110.6-110.6C5060.8,418.9,5011.2,369.3,4950.2,369.3z"/>
	</g>
</g>
</svg>
