<?xml version="1.0" encoding="utf-8"?>
<!-- Generator: Adobe Illustrator 19.2.0, SVG Export Plug-In . SVG Version: 6.00 Build 0)  -->
<svg version="1.1" id="Layer_1" xmlns="http://www.w3.org/2000/svg" xmlns:xlink="http://www.w3.org/1999/xlink" x="0px" y="0px"
	 width="512px" height="512px" viewBox="5340.1 258 512 512" enable-background="new 5340.1 258 512 512" xml:space="preserve">
<g>
	<g>
		<g>
			<path fill="#1D1D1B" d="M5429.4,607v74.3h74.4v-13.9h-60.4V607H5429.4z M5748.8,607v60.4h-60.4v13.9h74.4V607H5748.8z
				 M5429.4,346.7V421h13.9v-60.4h60.4v-13.9H5429.4z M5688.4,346.7v13.9h60.4V421h13.9v-74.3H5688.4z"/>
		</g>
	</g>
	<g>
		<g>
			<rect x="5468.8" y="386.1" fill="#1D1D1B" width="64.1" height="64.1"/>
		</g>
	</g>
	<g>
		<g>
			<rect x="5595.9" y="386.1" fill="#1D1D1B" width="64.1" height="64.1"/>
		</g>
	</g>
	<g>
		<g>
			<rect x="5659.8" y="449.9" fill="#1D1D1B" width="64.1" height="64.1"/>
		</g>
	</g>
	<g>
		<g>
			<rect x="5659.8" y="577" fill="#1D1D1B" width="64.1" height="64.1"/>
		</g>
	</g>
	<g>
		<g>
			<rect x="5532.4" y="449.6" fill="#1D1D1B" width="64.1" height="64.1"/>
		</g>
	</g>
	<g>
		<g>
			<rect x="5532.4" y="513.7" fill="#1D1D1B" width="64.1" height="64.1"/>
		</g>
	</g>
	<g>
		<g>
			<rect x="5595.6" y="577" fill="#1D1D1B" width="64.1" height="64.1"/>
		</g>
	</g>
	<g>
		<g>
			<rect x="5468.3" y="513.7" fill="#1D1D1B" width="64.1" height="64.1"/>
		</g>
	</g>
	<g>
		<g>
			<rect x="5468.3" y="577.9" fill="#1D1D1B" width="64.1" height="64.1"/>
		</g>
	</g>
</g>
</svg>
