<?xml version="1.0" encoding="utf-8"?>
<!-- Generator: Adobe Illustrator 19.2.0, SVG Export Plug-In . SVG Version: 6.00 Build 0)  -->
<svg version="1.1" id="Layer_1" xmlns="http://www.w3.org/2000/svg" xmlns:xlink="http://www.w3.org/1999/xlink" x="0px" y="0px"
	 width="512px" height="512px" viewBox="1605.1 1524.1 512 512" enable-background="new 1605.1 1524.1 512 512"
	 xml:space="preserve">
<g id="Icon_36_">
	<g>
		<g>
			<path d="M1792.9,1972l-49.5-74.2l-74.2-49.5l31.4-31.4l56,11.9l70.3-70.3l-147.1-79.2l38.3-38.3l186.7,39.6l76.9-76.9
				c15.1-15.1,39.9-14.8,55.3,0.6c7.3,7.3,11.5,17,11.7,27.3c0.2,10.6-3.7,20.5-11.2,28l-76.9,76.9l39.6,186.7l-38.3,38.3
				l-79.2-147.1l-70.3,70.3l11.9,56L1792.9,1972z M1692.7,1845.9l61.5,41l41,61.5l12.7-12.7l-11.9-56l90.3-90.3l79.2,147.1
				l18.3-18.3l-39.6-186.7l82.6-82.6c4.5-4.5,6.9-10.5,6.8-17c-0.1-6.4-2.8-12.5-7.3-17.1c-9.6-9.6-24.8-9.8-34.1-0.6l-82.6,82.6
				l-186.7-39.6l-18.3,18.3l147.1,79.2l-90.3,90.3l-56-11.9L1692.7,1845.9z"/>
		</g>
	</g>
</g>
</svg>
